<svg width="500" height="501" viewBox="0 0 500 501" fill="none" xmlns="http://www.w3.org/2000/svg">
<path d="M500 0.998291H0V500.998H500V0.998291Z" fill="#ADB0D9"/>
<path d="M373.9 136.798C375.8 129.798 380.9 123.098 379.6 115.998C378.6 110.498 376.3 104.798 377 99.0983C377.5 94.8983 383.8 82.2984 389.3 83.7984C391.5 84.3984 392.6 86.8983 393.3 88.9983C397.3 100.498 400.5 110.298 401.8 122.598C403.1 134.998 403.4 147.498 402.9 159.998C402.6 167.698 401.9 175.498 398.8 182.498C396.1 188.698 391.5 194.098 385.9 197.798C384.3 194.298 380.9 192.098 378.4 189.198C374.4 184.698 372.5 178.798 371.4 172.898C371.4 160.398 370.6 149.198 373.9 136.798Z" fill="#444DF2"/>
<path d="M362.3 250.998C360.3 242.798 361.1 234.198 361.9 225.798C362.9 215.698 365.9 205.198 372.1 197.798C376.9 192.098 383.7 188.298 392.9 188.098C399 187.998 407.8 189.498 411.3 194.998C414.9 200.798 415.8 210.498 415.3 216.998C414.6 225.798 411 233.898 407.5 241.798C403.7 250.498 398.7 269.198 387.1 269.998C375 270.898 365.1 262.298 362.3 250.998Z" fill="#F5B18F"/>
<path d="M297.9 500.998H75.3999C76.1999 497.598 76.9999 494.198 77.7999 490.798C93.6999 422.598 99.8999 356.498 100.8 284.998C157.1 305.798 216.3 296.898 274.4 295.998C296 295.698 288.8 320.198 289 343.098C289.3 371.698 290.4 400.198 292.1 428.598C293.5 452.798 295.5 476.998 297.9 500.998Z" fill="#F5B18F"/>
<path d="M395.9 162.998C393.6 191.598 390.1 220.198 388.2 248.898C387.4 261.598 386.9 274.198 386.9 286.898C387 326.098 391.7 368.598 370.1 401.298C354.2 425.298 326.1 439.398 297.5 443.098C276.8 445.798 256.1 443.298 235.9 438.798C204.4 431.898 172.1 419.298 145.4 399.798C129 387.798 114.8 373.198 104.3 355.598C94.1997 338.798 88.1997 319.898 85.0997 300.398C83.4997 290.098 82.6997 279.598 82.5997 269.098C82.3997 249.598 84.3997 230.098 87.1997 210.798C91.1997 183.198 95.0997 153.998 110.8 130.198C125.5 107.998 147.3 90.6983 171.6 79.9983C212.2 62.1983 258.1 60.9983 302.4 63.6983C318.1 64.6983 333.9 66.0983 348.8 71.0983C363.7 76.0983 377.7 84.9983 386.2 98.0983C398.3 116.798 397.7 140.798 395.9 162.998Z" fill="#FEC29B"/>
<path d="M241.272 261.462C249.264 260.937 255.023 249.566 254.137 236.063C253.251 222.561 246.054 212.04 238.063 212.565C230.071 213.089 224.312 224.46 225.198 237.963C226.084 251.466 233.281 261.986 241.272 261.462Z" fill="#1B1464"/>
<path d="M335.387 248.36C343.378 247.836 349.138 236.465 348.251 222.962C347.365 209.46 340.168 198.939 332.177 199.463C324.186 199.988 318.426 211.359 319.312 224.862C320.199 238.364 327.395 248.885 335.387 248.36Z" fill="#1B1464"/>
<path d="M214.42 191.718C219.14 188.908 226.67 186.278 234.23 185.798C241.83 185.318 248.4 187.038 252.57 191.538L260.64 184.058C253.32 176.158 242.83 174.228 233.53 174.818C224.19 175.408 214.97 178.588 208.79 182.268L214.42 191.718ZM252.57 191.538C254.64 193.768 258.12 193.898 260.34 191.828C262.57 189.758 262.7 186.278 260.63 184.058L252.57 191.538ZM208.78 182.278C206.17 183.838 205.32 187.208 206.87 189.818C208.43 192.428 211.8 193.278 214.41 191.728L208.78 182.278Z" fill="#1B1464"/>
<path d="M333.2 179.798C335.87 184.608 335.86 184.608 335.86 184.608C335.86 184.608 335.87 184.608 335.88 184.598C335.9 184.588 335.95 184.558 336.02 184.528C336.15 184.458 336.37 184.348 336.66 184.208C337.24 183.928 338.11 183.538 339.2 183.108C341.41 182.238 344.43 181.268 347.78 180.778C354.48 179.798 361.72 180.778 367.14 187.468L375.68 180.538C366.9 169.718 355.04 168.608 346.19 169.898C341.77 170.548 337.9 171.798 335.17 172.878C333.79 173.418 332.67 173.928 331.89 174.308C331.49 174.498 331.18 174.658 330.96 174.778C330.85 174.838 330.76 174.888 330.69 174.918C330.66 174.938 330.63 174.948 330.61 174.968C330.6 174.978 330.59 174.978 330.58 174.988C330.58 174.988 330.57 174.988 330.57 174.998C330.54 174.988 330.53 174.988 333.2 179.798ZM367.13 187.468C369.04 189.828 372.51 190.188 374.87 188.278C377.23 186.368 377.59 182.898 375.68 180.538L367.13 187.468ZM330.53 174.988C327.87 176.458 326.91 179.808 328.39 182.468C329.86 185.128 333.21 186.088 335.87 184.608L330.53 174.988Z" fill="#1B1464"/>
<path d="M234.6 346.478C251.6 362.728 276.04 370.758 299.35 367.958L298.04 357.038C277.95 359.448 256.79 352.478 242.19 338.518L234.6 346.478ZM299.35 367.958C302.37 367.598 304.52 364.858 304.16 361.838C303.8 358.818 301.06 356.668 298.04 357.028L299.35 367.958ZM242.2 338.518C240 336.418 236.52 336.498 234.42 338.698C232.32 340.898 232.4 344.378 234.6 346.478L242.2 338.518Z" fill="#1B1464"/>
<path d="M394.9 105.698C386.6 130.598 348.1 134.898 326.1 137.298C292.6 140.998 262.8 133.498 230.6 125.998C226.4 124.998 172.1 111.698 172.1 111.698C169.3 139.498 163 164.098 146.1 186.398C138.8 195.998 145.2 207.998 144.1 220.598C142.8 236.698 142.3 256.298 137.3 271.698C136.7 273.698 134.8 275.398 132.7 275.098C129.8 274.698 128.9 271.198 127.8 268.498C125.3 262.198 118.2 256.498 111.2 259.498C104.6 262.398 101.3 272.698 97.9 278.398C94.7 283.798 89.7 288.398 87.9 294.398C87.3 296.398 87.1 298.498 86.2 300.398C85.3 302.298 83.5 303.998 81.4 303.998C79.9 303.998 78.5 302.998 77.4 301.998C66.5 292.598 64.7 280.198 61 267.398C56.8 252.398 55.0999 236.898 53.5999 221.498C52.6999 211.498 51.8999 201.398 50.5999 191.398C49.4999 182.698 47.1 174.098 47 165.298C46.6 136.898 52.5 108.098 66.4 83.4983C84.6 51.4983 121.7 34.5983 155 25.7983C209.8 11.3983 264.5 19.2983 317.8 36.2983C339.3 43.1983 405.1 75.3983 394.9 105.698Z" fill="#444DF2"/>
<path d="M314.7 257.528C310.3 253.528 307.18 251.258 304.85 248.188C302.95 245.668 301.89 242.898 302.63 238.388L291.77 236.608C290.51 244.298 292.5 250.078 296.07 254.808C299.22 258.978 303.99 262.658 307.3 265.668L314.7 257.528ZM324.2 279.168C324.45 270.918 320.68 262.898 314.68 257.508L307.33 265.688C311.13 269.098 313.35 274.078 313.21 278.828L324.2 279.168ZM271.85 298.658C280.71 303.788 292.91 306.678 303.42 304.588C308.78 303.528 313.95 301.108 317.85 296.738C321.79 292.328 323.99 286.408 324.19 279.148L313.19 278.838C313.04 283.978 311.55 287.268 309.63 289.418C307.68 291.608 304.86 293.088 301.26 293.798C293.87 295.268 284.37 293.208 277.33 289.128L271.85 298.658ZM302.63 238.388C303.12 235.388 301.09 232.558 298.09 232.068C295.09 231.578 292.26 233.608 291.77 236.608L302.63 238.388ZM311 261.598L307.3 265.668C307.31 265.678 307.32 265.688 307.33 265.688L311 261.598ZM318.7 278.998L313.2 278.828V278.838L318.7 278.998ZM277.35 289.138C274.72 287.618 271.36 288.518 269.83 291.148C268.31 293.778 269.21 297.138 271.84 298.668L277.35 289.138Z" fill="#1B1464"/>
<path d="M116.1 202.898C109.7 195.298 100.8 190.298 88.5998 189.998C70.6998 189.598 53.4998 201.898 47.0998 218.598C36.6998 245.498 54.0998 278.398 77.5998 292.198C98.4998 304.498 123 297.298 129.1 272.998C131.8 262.198 130.7 250.798 129.7 239.798C128.3 226.498 124.3 212.698 116.1 202.898Z" fill="#FEC29B"/>
<path d="M104.8 245.398C105.53 239.948 105.52 239.948 105.52 239.948C105.52 239.948 105.52 239.948 105.51 239.948H105.5C105.49 239.948 105.48 239.948 105.47 239.948C105.44 239.948 105.41 239.938 105.37 239.938C105.29 239.928 105.18 239.918 105.05 239.898C104.78 239.868 104.41 239.828 103.94 239.798C103.01 239.728 101.71 239.648 100.17 239.638C97.1201 239.618 92.9201 239.858 88.6701 240.958C84.4601 242.048 79.7302 244.108 76.2102 248.088C72.5402 252.228 70.7101 257.848 71.3201 264.878L82.2802 263.928C81.8902 259.458 83.0602 256.948 84.4502 255.378C85.9902 253.638 88.3901 252.388 91.4301 251.608C94.4301 250.828 97.6001 250.628 100.12 250.638C101.36 250.648 102.38 250.708 103.09 250.758C103.44 250.788 103.71 250.808 103.88 250.828C103.97 250.838 104.03 250.848 104.06 250.848C104.08 250.848 104.09 250.848 104.09 250.848C104.07 250.848 104.07 250.848 104.8 245.398ZM69.8001 224.398C70.6201 229.838 70.6201 229.838 70.6201 229.838C70.6201 229.838 70.6401 229.838 70.6601 229.828C70.7001 229.818 70.7701 229.818 70.8601 229.798C71.0501 229.778 71.3501 229.738 71.7501 229.698C72.5401 229.618 73.7001 229.538 75.1101 229.508C77.9501 229.448 81.6501 229.628 85.3001 230.488C88.9701 231.348 92.2801 232.828 94.7201 235.128C97.0401 237.328 98.9202 240.588 99.3302 245.798L110.3 244.958C109.7 237.178 106.71 231.308 102.28 227.128C97.9702 223.058 92.6502 220.908 87.8302 219.768C82.9802 218.628 78.3002 218.428 74.9002 218.498C73.1802 218.528 71.7501 218.638 70.7301 218.728C70.2201 218.778 69.8102 218.828 69.5202 218.858C69.3702 218.878 69.2601 218.888 69.1701 218.908C69.1301 218.918 69.0901 218.918 69.0601 218.918C69.0501 218.918 69.0302 218.918 69.0302 218.928H69.0202C69.0202 218.928 69.0202 218.928 69.0102 218.928C68.9802 218.958 68.9801 218.958 69.8001 224.398ZM71.3201 264.878C71.5801 267.908 74.2502 270.148 77.2802 269.878C80.3102 269.618 82.5502 266.948 82.2802 263.918L71.3201 264.878ZM104.8 245.398L104.07 250.848C105.71 251.068 107.37 250.528 108.58 249.388C109.79 248.248 110.41 246.628 110.28 244.968L104.8 245.398ZM68.9801 218.958C65.9801 219.418 63.9101 222.218 64.3701 225.218C64.8301 228.218 67.6301 230.288 70.6301 229.828L68.9801 218.958Z" fill="#F4AC7D"/>
<path d="M286.25 437.008C244.83 438.858 195.71 426.128 161.45 403.228L155.34 412.368C191.68 436.668 243.16 449.938 286.74 447.988L286.25 437.008ZM161.46 403.228C158.93 401.538 155.52 402.218 153.83 404.748C152.14 407.278 152.82 410.688 155.35 412.378L161.46 403.228ZM286.75 447.988C289.78 447.848 292.13 445.278 292 442.248C291.87 439.218 289.29 436.868 286.26 436.998L286.75 447.988Z" fill="#1B1464"/>
</svg>
