<svg width="500" height="501" viewBox="0 0 500 501" fill="none" xmlns="http://www.w3.org/2000/svg">
<path d="M500 0.998291H0V500.998H500V0.998291Z" fill="#444DF2"/>
<path d="M399.8 298.098C404.6 309.098 412.3 318.598 418.2 328.998C424.1 339.398 428.1 351.898 424.8 363.398C427.7 364.098 430 360.798 431.1 357.998C437.5 340.898 430.6 312.998 424.4 296.398C416.5 275.098 399.5 256.698 398.6 233.998C391 254.198 391 278.198 399.8 298.098Z" fill="#797EF3"/>
<path d="M387.2 74.6982C400.8 91.1982 411.4 111.398 411 132.798C410.8 140.298 409.3 147.598 407.8 154.898C404.7 169.898 401.6 184.798 398.5 199.798C397.7 203.498 397 207.198 395 210.398C390.4 217.898 379.9 220.298 371.7 217.298C363.5 214.298 357.4 206.798 354.2 198.698C349.2 186.298 349.8 172.098 353.5 159.298C357.2 146.398 363.8 134.598 370.6 123.098C375.7 114.498 381.1 105.798 389.1 99.7982L387.2 74.6982Z" fill="#797EF3"/>
<path d="M308.9 500.998H201.7C201.6 500.998 201.6 500.998 201.5 500.998C183.4 500.098 165.1 500.698 146.9 500.898C143.3 500.898 139.7 500.998 136 500.998C136.7 498.598 137.4 496.298 138 493.998C149.4 454.498 154.9 416.198 156.9 375.698C157.3 367.898 157.5 359.998 157.7 352.098C160.4 352.898 163.1 353.598 165.9 354.298C166.5 354.498 167 354.598 167.6 354.698C172.2 355.798 176.8 356.798 181.5 357.498C222.3 364.498 264.4 360.098 305.9 359.598C322.3 359.398 314.8 391.498 308.3 416.598C308.3 416.698 308.2 416.798 308.2 416.898C305.3 427.798 302.7 437.398 302.3 442.398C300.8 462.098 302.3 482.498 308.9 500.998Z" fill="#E8C5AA"/>
<path d="M345.5 88.8983C336 82.0983 324.6 77.7983 312.5 73.5983C258.7 54.8983 192.3 60.4983 150.4 102.298C134.4 118.198 122.9 138.398 116.8 160.198C110.2 183.698 113.6 204.498 115.1 228.198C117.4 265.798 123.3 305.598 147.7 334.298C189 382.898 254 413.398 317.3 417.498C337 418.798 358.9 416.198 375.9 405.598C386.1 399.198 394.5 389.398 398.5 377.898C401.2 370.098 400 361.198 401.4 352.998C404.1 336.798 409.7 321.298 411.7 304.998C413.8 287.798 413.4 270.398 411.9 253.198C411 242.598 410.7 231.698 407.9 221.398C405.1 210.998 399.8 201.698 396.6 191.298C390.2 170.398 384.2 147.498 374.3 127.998C367.3 114.298 358.1 97.7983 345.5 88.8983Z" fill="#F4D3B8"/>
<path d="M323.834 235.833C331.634 234.014 335.465 221.857 332.392 208.679C329.319 195.501 320.506 186.293 312.707 188.112C304.907 189.93 301.076 202.087 304.149 215.265C307.222 228.443 316.035 237.651 323.834 235.833Z" fill="#1B1464"/>
<path d="M382.11 210.378C388.24 208.948 391.27 199.458 388.88 189.188C386.49 178.918 379.57 171.748 373.44 173.178C367.31 174.608 364.28 184.098 366.68 194.368C369.07 204.638 375.98 211.808 382.11 210.378Z" fill="#1B1464"/>
<path d="M395.88 250.028C397.39 251.838 397.7 255.118 395.53 260.668C393.49 265.888 389.98 271.168 387.36 274.988L396.44 281.198C399.02 277.428 403.22 271.208 405.77 264.668C408.2 258.468 410 249.748 404.32 242.958L395.88 250.028ZM374.8 241.548C378.93 243.558 384.29 244.708 387.72 245.738C391.68 246.918 394.28 248.158 395.94 250.088L404.28 242.918C400.44 238.448 395.19 236.488 390.87 235.198C386.02 233.748 382.68 233.148 379.61 231.658L374.8 241.548ZM351.76 211.198C353.76 224.858 363.01 235.768 374.78 241.538L379.62 231.658C370.59 227.228 364.04 219.138 362.64 209.598L351.76 211.198ZM387.36 274.988C385.64 277.498 386.29 280.918 388.79 282.628C391.29 284.338 394.72 283.698 396.43 281.198L387.36 274.988ZM400.1 246.498L404.32 242.968C404.3 242.948 404.29 242.928 404.27 242.918L400.1 246.498ZM377.2 236.598L374.78 241.538C374.79 241.538 374.79 241.548 374.8 241.548L377.2 236.598ZM362.64 209.598C362.2 206.588 359.41 204.518 356.4 204.958C353.39 205.398 351.32 208.188 351.76 211.198L362.64 209.598Z" fill="#1B1464"/>
<path d="M330.4 325.488C346.66 324.308 366.36 322.748 380.65 310.708L373.56 302.298C362.45 311.658 346.55 313.298 329.61 314.518L330.4 325.488ZM304.01 324.768C313.03 326.768 322.24 326.078 330.4 325.488L329.61 314.518C321.17 315.128 313.58 315.628 306.4 314.038L304.01 324.768ZM376.3 331.218C353.78 340.518 325.46 333.908 309.31 315.748L301.09 323.058C320.34 344.698 353.62 352.488 380.5 341.388L376.3 331.218ZM380.64 310.708C382.96 308.748 383.26 305.278 381.3 302.958C379.34 300.638 375.87 300.338 373.55 302.298L380.64 310.708ZM305.2 319.398L306.39 314.028C304.06 313.508 301.66 314.558 300.45 316.608C299.24 318.668 299.5 321.268 301.08 323.048L305.2 319.398ZM380.5 341.378C383.31 340.218 384.64 336.998 383.48 334.198C382.32 331.388 379.1 330.058 376.3 331.218L380.5 341.378Z" fill="#1B1464"/>
<path d="M287.21 167.998C278.08 172.178 269.21 179.428 265.02 189.488L275.17 193.718C277.98 186.968 284.31 181.418 291.78 178.008L287.21 167.998ZM322.98 163.608C310.27 161.068 299.2 162.548 287.23 167.998L291.78 178.008C301.8 173.448 310.53 172.338 320.83 174.398L322.98 163.608ZM265.02 189.478C263.85 192.278 265.18 195.498 267.98 196.668C270.78 197.838 274 196.508 275.17 193.708L265.02 189.478ZM289.5 172.998L287.22 167.988C287.22 167.988 287.21 167.988 287.21 167.998L289.5 172.998ZM320.82 174.388C323.8 174.988 326.7 173.048 327.29 170.078C327.89 167.098 325.95 164.198 322.98 163.608L320.82 174.388Z" fill="#1B1464"/>
<path d="M360.9 153.598C362.5 158.858 362.5 158.858 362.49 158.858C362.49 158.858 362.49 158.858 362.5 158.858C362.51 158.858 362.54 158.848 362.57 158.838C362.64 158.818 362.77 158.778 362.94 158.738C363.28 158.648 363.79 158.528 364.45 158.388C365.77 158.108 367.63 157.798 369.73 157.658C374.11 157.358 378.7 157.868 382.03 160.018L388 150.778C381.72 146.728 374.26 146.328 369 146.688C366.28 146.868 363.9 147.268 362.21 147.628C361.36 147.808 360.67 147.978 360.17 148.098C359.92 148.158 359.73 148.218 359.58 148.258C359.51 148.278 359.45 148.298 359.41 148.308C359.39 148.318 359.37 148.318 359.35 148.328C359.34 148.328 359.34 148.328 359.33 148.338H359.32C359.3 148.338 359.3 148.338 360.9 153.598ZM382.02 160.018C384.57 161.668 387.98 160.938 389.62 158.378C391.26 155.818 390.54 152.418 387.98 150.778L382.02 160.018ZM359.3 148.338C356.39 149.218 354.75 152.288 355.63 155.198C356.51 158.108 359.58 159.748 362.49 158.868L359.3 148.338Z" fill="#1B1464"/>
<path d="M307.8 115.198C309.6 117.498 311.5 119.798 313.4 121.998C326.8 137.498 344.8 136.898 364 138.898C378.3 140.298 393.6 144.098 402.4 155.498C409.6 164.898 410.8 177.798 409 189.498C408.3 194.398 407.1 199.198 406.6 204.098C405 219.798 410.8 235.798 421 247.698C431.2 259.698 445.7 267.698 460.9 271.398C452.9 264.198 444.8 256.898 438.8 247.798C432 237.398 428.3 225.098 428.4 212.698C428.5 199.998 432.4 187.598 435 175.198C440.8 147.498 439 118.498 431.2 91.3984C424.7 68.9984 413.5 38.1984 392.6 25.2984C375.4 14.5984 356.7 9.19836 336.2 10.7984C318.8 12.1984 301.3 20.2984 291.4 34.7984C274.4 59.6984 291.4 94.0984 307.8 115.198Z" fill="#797EF3"/>
<path d="M302.5 70.3984C301 71.4984 299.5 72.4984 298 73.4984C296 74.7984 294 76.0984 292 77.2984C290.7 78.0984 289.4 78.8984 288.1 79.6984C268 92.4984 247.8 105.298 229.5 120.598C217.9 130.298 207.1 140.798 196.5 151.498C191.7 156.298 185.5 160.698 181.2 165.798C177 170.798 177.1 176.098 176.4 182.598C176.3 183.598 176.2 184.698 176 185.698C172.2 218.398 168.4 251.098 164.5 283.698C161.7 307.298 164.1 330.098 165.7 352.898C165.7 353.298 165.8 353.698 165.8 354.098C166.6 366.698 167.2 379.298 166.5 392.198C166.3 395.898 166 399.598 165.5 403.298C163.9 417.098 162.2 430.798 160.6 444.598C158.5 462.398 156.3 480.598 148.8 496.898C148.2 498.198 147.5 499.598 146.8 500.898H52C49.7 498.898 47.6 496.898 46.1 494.498C40.2 484.898 43.1 467.498 46.7 457.698C50.6 447.398 57.4 438.398 62.1 428.498C66.8 418.498 69.1 406.298 63.8 396.698C61.5 392.498 58 389.198 55.1 385.398C42.2 367.798 46.6 343.298 52.9 322.398C59.2 301.498 66.9 278.898 59.1 258.498C55.4 248.898 48.5 240.798 44.2 231.398C32.5 205.598 42.5 174.798 58.3 151.298C64.8 141.598 72.3 132.398 76.5 121.498C81.1 109.598 81.4 96.4984 83.3 83.8984C85.2 71.2984 89.4 58.0984 99.5 50.1984C107.8 43.6984 118.4 42.0984 128.1 38.5984C138 34.9984 146.1 28.8984 155 23.4984C175.7 10.9984 199.3 4.09836 223.5 3.69836C241.2 3.49836 258.9 6.49836 275.7 11.8984C286.3 15.2984 292.8 19.5984 299 25.8984C302.2 29.1984 305.4 33.0984 309 37.5984C311.7 40.9984 314.4 44.4984 315.2 48.6984C316.8 57.5984 310 64.8984 302.5 70.3984Z" fill="#797EF3"/>
<path d="M135.2 202.898C128.8 195.298 119.9 190.298 107.7 189.998C89.7999 189.598 72.5999 201.898 66.1999 218.598C55.7999 245.498 73.1999 278.398 96.6999 292.198C117.6 304.498 142.1 297.298 148.2 272.998C150.9 262.198 149.8 250.798 148.8 239.798C147.4 226.498 143.4 212.698 135.2 202.898Z" fill="#F4D3B8"/>
<path d="M124 245.398C124.73 239.948 124.72 239.948 124.72 239.948C124.72 239.948 124.72 239.948 124.71 239.948H124.7C124.69 239.948 124.68 239.948 124.67 239.948C124.64 239.948 124.61 239.938 124.57 239.938C124.49 239.928 124.38 239.918 124.25 239.898C123.98 239.868 123.61 239.828 123.14 239.798C122.21 239.728 120.91 239.648 119.37 239.638C116.32 239.618 112.12 239.858 107.87 240.958C103.66 242.048 98.9298 244.108 95.4098 248.088C91.7398 252.228 89.9098 257.848 90.5198 264.878L101.48 263.928C101.09 259.458 102.26 256.948 103.65 255.378C105.19 253.638 107.59 252.388 110.63 251.608C113.63 250.828 116.8 250.628 119.32 250.638C120.56 250.648 121.58 250.708 122.29 250.758C122.64 250.788 122.91 250.808 123.08 250.828C123.17 250.838 123.23 250.848 123.26 250.848C123.28 250.848 123.29 250.848 123.29 250.848C123.27 250.848 123.27 250.848 124 245.398ZM88.9998 224.398C89.8198 229.838 89.8198 229.838 89.8198 229.838C89.8198 229.838 89.8398 229.838 89.8598 229.828C89.8998 229.818 89.9698 229.818 90.0598 229.798C90.2498 229.778 90.5498 229.738 90.9498 229.698C91.7398 229.618 92.8998 229.538 94.3098 229.508C97.1498 229.448 100.85 229.628 104.5 230.488C108.17 231.348 111.48 232.828 113.92 235.128C116.24 237.328 118.12 240.588 118.53 245.798L129.5 244.958C128.9 237.178 125.91 231.308 121.48 227.128C117.17 223.058 111.85 220.908 107.03 219.768C102.18 218.628 97.4998 218.428 94.0998 218.498C92.3798 218.528 90.9498 218.638 89.9298 218.728C89.4198 218.778 89.0098 218.828 88.7198 218.858C88.5698 218.878 88.4598 218.888 88.3698 218.908C88.3298 218.918 88.2898 218.918 88.2598 218.918C88.2498 218.918 88.2298 218.918 88.2298 218.928H88.2198C88.2198 218.928 88.2198 218.928 88.2098 218.928C88.1798 218.958 88.1798 218.958 88.9998 224.398ZM90.5198 264.878C90.7798 267.908 93.4498 270.148 96.4798 269.878C99.5098 269.618 101.75 266.948 101.48 263.918L90.5198 264.878ZM124 245.398L123.27 250.848C124.91 251.068 126.57 250.528 127.78 249.388C128.99 248.248 129.61 246.628 129.48 244.968L124 245.398ZM88.1798 218.958C85.1798 219.418 83.1098 222.218 83.5698 225.218C84.0298 228.218 86.8298 230.288 89.8298 229.828L88.1798 218.958Z" fill="#EABC97"/>
<path d="M148.3 137.898C154.4 120.798 164.6 104.598 175 89.9983C185.1 75.6983 198.8 63.9983 214.5 56.1983C229.2 48.9983 246.2 45.1983 262 49.3983C287.8 56.2983 303.5 88.4983 290.6 112.898C285.5 122.598 275.8 128.898 266.8 134.998C237.9 154.798 209.6 180.198 202.2 214.398C197.6 235.498 201.7 257.398 198.3 278.598C195.6 294.898 188 308.698 183.2 323.998C178.1 339.798 180.8 358.398 185.5 373.998C190.8 391.498 199.5 407.598 208 423.798C214.3 435.798 220.4 450.998 212.6 462.098C216.4 451.898 212.2 440.198 205.4 431.698C198.6 423.198 189.5 416.898 181.5 409.498C163 392.198 150.9 368.298 147.4 343.298C145.9 332.898 144.7 321.698 144 311.098C143.2 298.398 148.5 285.798 149.9 273.198C152.5 249.398 141.4 231.098 139.3 208.998C137.1 185.798 140.4 160.098 148.3 137.898Z" fill="#797EF3"/>
<path d="M303.5 417.498C303.5 411.998 303.5 411.998 303.5 411.998C303.49 411.998 303.48 411.998 303.45 411.998C303.4 411.998 303.32 411.998 303.2 411.998C302.97 411.988 302.61 411.978 302.12 411.958C301.15 411.918 299.69 411.828 297.78 411.638C293.97 411.278 288.4 410.538 281.52 409.058C267.75 406.098 248.75 400.148 228.03 388.228L222.55 397.768C244.42 410.348 264.53 416.658 279.21 419.818C286.55 421.398 292.55 422.198 296.74 422.598C298.84 422.798 300.49 422.898 301.63 422.948C302.2 422.978 302.65 422.988 302.96 422.998C303.12 422.998 303.24 423.008 303.33 423.008C303.37 423.008 303.41 423.008 303.44 423.008C303.45 423.008 303.47 423.008 303.47 423.008H303.48C303.5 422.998 303.5 422.998 303.5 417.498ZM228.04 388.228C225.41 386.718 222.04 387.618 220.53 390.258C219.02 392.898 219.92 396.258 222.56 397.768L228.04 388.228ZM303.5 422.998C306.54 422.998 309 420.538 309 417.498C309 414.458 306.54 411.998 303.5 411.998V422.998Z" fill="#1B1464"/>
</svg>
