<svg width="500" height="501" viewBox="0 0 500 501" fill="none" xmlns="http://www.w3.org/2000/svg">
<path d="M500 1.00977H0V500.998H500V1.00977Z" fill="#444DF2"/>
<path d="M294.15 416.7C290.68 444.55 287.35 472.849 286.24 500.998H52.8701C55.9401 496.288 59.5801 491.308 63.6601 485.879C83.6901 459.269 99.9201 429.81 111.79 398.691C117.72 383.141 122.57 367.161 126.24 350.922C128.8 339.652 137.34 315.182 133.51 304.073C135.7 310.433 138.79 316.312 142.58 321.742C154.57 338.912 173.58 351.422 193.34 359.321C219.35 369.711 247.41 373.721 274.33 381.451C279.96 383.071 285.82 385.031 289.75 389.381C296.13 396.461 295.33 407.24 294.15 416.7Z" fill="#444DF2"/>
<path d="M294.15 416.7C290.68 444.55 287.35 472.849 286.24 500.998H52.8701C55.9401 496.288 59.5801 491.308 63.6601 485.879C83.6901 459.269 99.9201 429.81 111.79 398.691C117.72 383.141 122.57 367.161 126.24 350.922C128.8 339.652 137.34 315.182 133.51 304.073C135.7 310.433 138.79 316.312 142.58 321.742C154.57 338.912 173.58 351.422 193.34 359.321C219.35 369.711 247.41 373.721 274.33 381.451C279.96 383.071 285.82 385.031 289.75 389.381C296.13 396.461 295.33 407.24 294.15 416.7Z" fill="#EAAA7F"/>
<path d="M105.87 183.036C105.55 161.156 107.87 138.997 117.98 119.347C135.32 85.618 173.36 64.7084 212.01 57.3886C250.67 50.0688 290.42 54.3487 329.35 58.9486C352.74 61.7185 387.62 65.9384 400.17 87.3679C416.76 115.667 418.37 156.516 421.67 188.186C424.97 219.855 429 251.444 432.16 283.133C434.93 310.923 433.86 340.422 422.62 366.841C409.19 398.421 379.79 424.1 344.93 432.59C295.34 444.66 227.62 428.95 195.71 391.321C172.28 363.692 146.02 333.572 130.51 301.153C114.56 267.814 108.07 230.895 106.25 194.355C106.06 190.596 105.92 186.816 105.87 183.036Z" fill="#F7C9A4"/>
<path d="M141.51 318.272C134.4 319.072 127.42 318.393 121.03 315.073C113.21 311.013 107.76 303.623 102.75 296.383C74.6798 255.874 53.2298 207.145 48.8098 157.606C47.1198 138.617 51.5498 118.187 64.8898 104.557C68.2898 101.088 72.2298 98.0776 74.9298 94.0377C78.4898 88.7178 79.5498 82.1679 81.8298 76.1781C89.3398 56.4085 109.24 42.4488 128.42 33.559C216.67 -7.34001 325.46 -13.4799 408.64 36.949C415.7 41.2289 422.68 48.0187 427.56 54.6686C448.06 82.6179 428.07 121.607 402.52 136.967C366.17 158.826 328.33 167.866 285.9 162.966C250.28 158.846 216.1 146.946 182.25 135.117C195.48 167.466 194.98 203.995 182.76 236.534C177.09 251.644 178.49 259.884 178.34 275.633C178.25 284.803 178.61 306.393 167.82 310.673C159.45 313.993 150.38 317.283 141.51 318.272Z" fill="#1B1464"/>
<path d="M151.38 221.685C178.18 240.274 186.44 286.653 187.12 317.032C187.15 318.452 187.17 319.932 187.8 321.212C189.83 325.402 161.22 326.862 158.9 326.882C147.61 326.992 136.31 325.802 125.29 323.322C113.33 320.632 109.69 317.482 102.58 307.193C96.6101 298.553 91.9401 288.973 89.4201 278.763C85.3301 262.194 87.2601 243.794 96.5901 229.514C99.6801 224.785 103.59 220.505 108.41 217.565C121.41 209.655 138.87 213.005 151.38 221.685Z" fill="#F7C9A4"/>
<path d="M172.08 319.042C149.13 334.652 120.53 325.432 112.42 318.562C100.61 308.553 93.0699 293.623 89.4099 278.773C85.3199 262.204 87.2499 243.804 96.5799 229.524C99.6699 224.795 103.58 220.515 108.4 217.575C121.4 209.655 138.86 213.015 151.38 221.685C165.05 231.164 174.41 246.614 176.49 263.124" fill="#F7C9A4"/>
<path d="M317.277 262.907C324.634 262.424 329.94 251.998 329.128 239.62C328.315 227.242 321.692 217.599 314.335 218.082C306.977 218.565 301.671 228.991 302.484 241.369C303.296 253.747 309.919 263.389 317.277 262.907Z" fill="#1B1464"/>
<path d="M395.401 238.925C402.758 238.442 408.064 228.017 407.252 215.639C406.439 203.261 399.816 193.618 392.459 194.101C385.101 194.584 379.795 205.009 380.608 217.387C381.42 229.765 388.043 239.408 395.401 238.925Z" fill="#1B1464"/>
<path d="M365.22 326.992C354.04 326.992 342.86 323.682 335.49 320.933C332.88 319.953 331.55 317.053 332.53 314.433C333.51 311.823 336.42 310.493 339.03 311.473C347.51 314.643 368.59 321.123 381.08 312.863C382.08 312.203 382.39 311.843 382.48 311.713C382.51 311.233 382.13 309.963 381.96 309.403C378.78 298.833 374.76 288.323 370.88 278.164C364.9 262.514 358.72 246.324 355.23 229.185C354.67 226.455 356.44 223.785 359.17 223.225C361.9 222.665 364.57 224.435 365.13 227.165C368.46 243.494 374.49 259.284 380.32 274.564C384.27 284.893 388.35 295.583 391.64 306.493C392.22 308.403 393.18 311.593 392.07 314.913C391 318.123 388.47 320.083 386.66 321.283C380.29 325.482 372.76 326.992 365.22 326.992Z" fill="#1B1464"/>
<path d="M263.79 238.694C261.35 238.694 259.2 236.914 258.81 234.424C255.42 212.795 268.82 189.816 289.32 182.126C291.93 181.146 294.84 182.466 295.82 185.076C296.8 187.686 295.48 190.596 292.87 191.575C276.69 197.645 266.11 215.785 268.79 232.855C269.22 235.604 267.34 238.194 264.58 238.624C264.31 238.674 264.05 238.694 263.79 238.694Z" fill="#1B1464"/>
<path d="M409.63 178.546C407.59 178.546 405.67 177.296 404.91 175.276C403.78 172.266 401.16 169.756 397.74 168.386C394.32 167.016 390.69 167.026 387.79 168.406C385.28 169.616 382.26 168.546 381.06 166.036C379.85 163.526 380.92 160.506 383.43 159.296C388.87 156.686 395.46 156.586 401.5 159.006C407.54 161.426 412.23 166.056 414.36 171.706C415.34 174.316 414.03 177.226 411.42 178.216C410.83 178.436 410.22 178.546 409.63 178.546Z" fill="#1B1464"/>
<path d="M344.71 379.182C331.94 379.182 319.16 375.572 308.65 368.402C306.35 366.832 305.75 363.692 307.33 361.382C308.9 359.082 312.04 358.482 314.35 360.052C331.35 371.652 355.45 372.182 372.95 361.322C375.32 359.852 378.43 360.582 379.9 362.952C381.37 365.322 380.64 368.432 378.27 369.902C368.29 376.102 356.5 379.182 344.71 379.182Z" fill="#1B1464"/>
<path d="M287.75 443.95C287.44 443.95 287.13 443.92 286.81 443.86C248.16 436.59 209.38 412.98 177.63 377.381C175.77 375.301 175.96 372.111 178.04 370.251C180.12 368.391 183.31 368.581 185.17 370.661C215.45 404.6 252.21 427.08 288.68 433.93C291.42 434.45 293.22 437.08 292.71 439.82C292.25 442.26 290.13 443.95 287.75 443.95Z" fill="#1B1464"/>
<path d="M123.88 292.423C121.29 292.423 119.08 290.443 118.86 287.813C118.12 279.253 121.46 274.114 124.4 271.304C129.75 266.194 137.56 264.854 143.23 264.644C142.38 262.714 141.14 261.104 139.49 259.794C131.89 253.724 118.34 255.624 118.21 255.644C115.46 256.044 112.89 254.144 112.48 251.394C112.07 248.644 113.96 246.074 116.71 245.654C117.44 245.544 134.68 243.054 145.76 251.864C151.07 256.084 154.06 262.034 154.63 269.534C154.75 271.054 154.17 272.544 153.07 273.594C151.96 274.644 150.44 275.123 148.93 274.934C145.57 274.504 135.85 274.314 131.37 278.613C129.4 280.503 128.6 283.223 128.93 286.933C129.17 289.713 127.12 292.163 124.34 292.403C124.18 292.413 124.03 292.423 123.88 292.423Z" fill="#EAAA7F"/>
</svg>
