<svg width="500" height="501" viewBox="0 0 500 501" fill="none" xmlns="http://www.w3.org/2000/svg">
<path d="M500 0.998291H0V500.998H500V0.998291Z" fill="#797EF3"/>
<path d="M385 229.398C381.9 221.598 381.6 212.898 381.3 204.498C381 194.298 382.6 183.498 387.8 175.398C391.8 169.098 398.1 164.398 407.2 162.998C413.2 162.098 422.2 162.498 426.3 167.398C430.7 172.598 432.8 182.098 433.1 188.698C433.5 197.498 431 205.998 428.6 214.298C425.9 223.398 423.4 242.598 412.1 244.898C400.2 247.498 389.2 240.198 385 229.398Z" fill="#D9A48E"/>
<path d="M344.3 500.998H121.8C122.6 497.598 123.4 494.198 124.2 490.798C140.1 422.598 146.3 356.498 147.2 284.998C203.5 305.798 262.7 296.898 320.8 295.998C342.4 295.698 335.2 320.198 335.4 343.098C335.7 371.698 336.8 400.198 338.5 428.598C340 452.798 341.9 476.998 344.3 500.998Z" fill="#D9A48E"/>
<path d="M404.3 138.198C410 165.698 408.4 194.698 410.3 223.798C411.1 236.498 412.3 249.098 414 261.698C419.3 300.498 429.4 342.098 412.3 377.298C399.7 403.198 373.7 420.798 345.8 428.198C325.6 433.598 304.8 433.798 284.1 431.998C252 429.198 218.3 421.098 189.3 405.198C171.5 395.498 155.5 382.798 142.7 366.798C125.9 345.598 121.3 326.998 118.3 301.298C108.2 214.998 56.5001 116.698 151.8 57.1983C221.7 13.4983 337.9 22.6983 386.2 94.2983C395.8 108.298 401.2 122.998 404.3 138.198Z" fill="#E5B69E"/>
<path d="M265.254 255.495C273.108 253.929 277.329 241.902 274.682 228.632C272.036 215.362 263.523 205.875 255.67 207.441C247.816 209.007 243.595 221.034 246.242 234.304C248.889 247.574 257.401 257.062 265.254 255.495Z" fill="#1B1464"/>
<path d="M356.846 230.084C364.699 228.518 368.92 216.491 366.274 203.221C363.627 189.951 355.115 180.464 347.261 182.03C339.408 183.596 335.187 195.624 337.833 208.893C340.48 222.163 348.992 231.651 356.846 230.084Z" fill="#1B1464"/>
<path d="M229.58 189.938C233.92 186.548 241.06 182.978 248.5 181.508C255.98 180.038 262.75 180.858 267.52 184.758L274.48 176.238C266.15 169.438 255.52 168.918 246.38 170.718C237.2 172.528 228.48 176.848 222.82 181.268L229.58 189.938ZM267.52 184.758C269.87 186.678 273.34 186.328 275.26 183.978C277.18 181.628 276.83 178.158 274.48 176.238L267.52 184.758ZM222.82 181.258C220.42 183.128 220 186.578 221.87 188.978C223.74 191.378 227.19 191.798 229.59 189.928L222.82 181.258Z" fill="#1B1464"/>
<path d="M320.8 150.598C324.06 155.028 324.06 155.028 324.06 155.028C324.06 155.028 324.07 155.018 324.08 155.018C324.1 154.998 324.14 154.968 324.21 154.928C324.33 154.838 324.53 154.708 324.8 154.528C325.34 154.178 326.15 153.668 327.18 153.098C329.26 151.948 332.13 150.588 335.39 149.668C341.91 147.828 349.2 147.868 355.42 153.778L363 145.808C352.91 136.218 341.01 136.658 332.4 139.088C328.1 140.308 324.43 142.048 321.86 143.478C320.56 144.198 319.52 144.838 318.79 145.318C318.42 145.558 318.13 145.758 317.92 145.898C317.82 145.968 317.73 146.028 317.67 146.078C317.64 146.098 317.61 146.118 317.59 146.138C317.58 146.148 317.57 146.148 317.56 146.158L317.55 146.168C317.54 146.168 317.54 146.168 320.8 150.598ZM355.41 153.788C357.61 155.878 361.09 155.798 363.19 153.588C365.28 151.388 365.2 147.908 362.99 145.808L355.41 153.788ZM317.54 146.168C315.1 147.968 314.58 151.418 316.38 153.858C318.18 156.298 321.63 156.818 324.07 155.018L317.54 146.168Z" fill="#1B1464"/>
<path d="M269.86 340.738C288.89 354.608 314.08 359.428 336.88 353.518L334.12 342.868C314.52 347.958 292.71 343.778 276.34 331.848L269.86 340.738ZM336.88 353.518C339.82 352.758 341.59 349.758 340.82 346.818C340.06 343.878 337.06 342.108 334.12 342.878L336.88 353.518ZM276.34 331.858C273.89 330.068 270.44 330.608 268.66 333.068C266.88 335.528 267.41 338.968 269.87 340.748L276.34 331.858Z" fill="#1B1464"/>
<path d="M325.19 218.488C324.17 213.548 324.48 208.408 324.89 202.378L313.92 201.638C313.53 207.408 313.04 214.068 314.42 220.728L325.19 218.488ZM341.16 246.878C333.36 238.788 327.42 229.388 325.19 218.498L314.41 220.708C317.18 234.208 324.45 245.408 333.24 254.528L341.16 246.878ZM345.67 282.158C350.71 275.938 352.13 269.298 350.66 262.838C349.27 256.728 345.42 251.358 341.18 246.908L333.21 254.488C336.87 258.328 339.18 261.968 339.93 265.278C340.61 268.238 340.18 271.458 337.12 275.228L345.67 282.158ZM301.49 288.478C307.84 291.118 315.98 292.768 323.86 292.278C331.72 291.788 340.07 289.078 345.67 282.168L337.13 275.238C334.14 278.928 329.23 280.918 323.17 281.298C317.13 281.678 310.67 280.378 305.71 278.318L301.49 288.478ZM324.89 202.368C325.1 199.338 322.81 196.718 319.77 196.508C316.74 196.298 314.12 198.588 313.91 201.628L324.89 202.368ZM319.8 219.598L325.19 218.498V218.488L319.8 219.598ZM337.2 250.698L341.18 246.908C341.17 246.898 341.16 246.888 341.15 246.878L337.2 250.698ZM305.71 278.318C302.91 277.148 299.69 278.478 298.52 281.288C297.35 284.088 298.68 287.308 301.49 288.478L305.71 278.318Z" fill="#1B1464"/>
<path d="M344.9 349.998C344.9 350.198 344.8 350.398 344.8 350.598C344.2 354.498 342.2 357.998 339.7 360.998C331.2 371.198 317.1 375.898 304 374.298C290.9 372.698 278.8 365.298 270.1 355.298C265.7 350.198 262.1 344.298 261.1 337.698C260.7 334.998 260.9 331.898 263 330.198C263.8 329.498 264.8 329.098 265.8 328.798C277.8 324.898 290.6 329.898 302.8 332.998C310 334.798 317.4 335.998 324.8 336.798C334.6 337.898 346.7 335.798 344.9 349.998ZM410.4 223.798C409.1 227.198 408.3 230.698 407.6 234.198C404.7 249.598 406.1 265.698 401.3 280.798C397 294.298 385.7 306.498 375 315.398C372.6 317.398 370 319.398 367 320.498C355.9 324.598 345 318.398 334.1 318.198C326.7 317.998 319.3 318.998 311.9 318.598C296 317.698 280.7 310.098 264.7 310.798C249.3 311.498 237.1 321.698 222.7 326.198C213.2 329.198 202.6 327.498 193.8 322.798C186.2 318.798 178.1 312.398 174 304.698C169.3 295.798 168.3 284.298 164.8 274.798C162.7 268.998 151.3 244.798 148.6 262.498C146.9 273.398 146.4 284.098 142.4 294.598C140.1 300.698 137 306.498 135 312.698C121.3 355.698 154.9 386.498 189.2 405.298C218.2 421.098 251.9 429.298 284 432.098C304.6 433.898 325.5 433.598 345.7 428.298C373.5 420.898 399.6 403.198 412.2 377.398C429.3 342.198 419.2 300.598 413.9 261.798C412.4 249.098 411.2 236.498 410.4 223.798Z" fill="#1B1464"/>
<path d="M134.6 213.998C127.3 207.298 117.8 203.498 105.6 204.898C87.8003 206.798 72.4002 221.298 68.2002 238.698C61.4002 266.698 83.0003 296.998 108.1 307.698C130.4 317.198 153.8 306.898 156.6 281.898C157.9 270.798 155.3 259.698 152.8 248.898C149.8 235.798 144 222.498 134.6 213.998Z" fill="#E5B69E"/>
<path d="M128.9 257.498C128.9 251.998 128.9 251.998 128.9 251.998C128.9 251.998 128.9 251.998 128.89 251.998H128.88C128.87 251.998 128.86 251.998 128.85 251.998C128.82 251.998 128.79 251.998 128.75 251.998C128.67 251.998 128.56 251.998 128.43 252.008C128.16 252.018 127.78 252.028 127.32 252.048C126.39 252.098 125.09 252.198 123.56 252.388C120.53 252.778 116.39 253.558 112.32 255.208C108.28 256.838 103.87 259.498 100.89 263.908C97.7898 268.498 96.6998 274.298 98.2298 281.188L108.97 278.798C108 274.438 108.83 271.808 110 270.058C111.3 268.138 113.52 266.578 116.44 265.398C119.32 264.228 122.44 263.608 124.94 263.298C126.17 263.138 127.2 263.068 127.9 263.028C128.25 263.008 128.52 262.998 128.7 262.998C128.79 262.998 128.85 262.998 128.88 262.998C128.9 262.998 128.91 262.998 128.91 262.998C128.9 262.998 128.9 262.998 128.9 257.498ZM91.4998 241.298C93.0298 246.578 93.0298 246.578 93.0298 246.578C93.0298 246.578 93.0497 246.578 93.0697 246.568C93.1097 246.558 93.1698 246.538 93.2698 246.518C93.4598 246.468 93.7498 246.398 94.1398 246.308C94.9198 246.128 96.0597 245.898 97.4497 245.678C100.27 245.248 103.95 244.938 107.69 245.308C111.45 245.678 114.91 246.708 117.62 248.668C120.2 250.528 122.47 253.508 123.54 258.618L134.31 256.378C132.72 248.738 129 243.318 124.07 239.748C119.27 236.278 113.72 234.848 108.78 234.358C103.83 233.868 99.1598 234.288 95.7898 234.798C94.0898 235.058 92.6798 235.348 91.6798 235.578C91.1798 235.698 90.7798 235.798 90.4898 235.868C90.3498 235.908 90.2298 235.938 90.1498 235.958C90.1098 235.968 90.0698 235.978 90.0498 235.988C90.0398 235.988 90.0298 235.998 90.0198 235.998H90.0098C90.0098 235.998 90.0098 235.998 89.9998 235.998C89.9698 236.018 89.9698 236.018 91.4998 241.298ZM98.2298 281.188C98.8898 284.158 101.83 286.018 104.79 285.368C107.75 284.718 109.62 281.768 108.97 278.808L98.2298 281.188ZM128.9 257.498V262.998C130.56 262.998 132.12 262.248 133.17 260.968C134.21 259.688 134.63 257.998 134.29 256.378L128.9 257.498ZM89.9697 236.018C87.0497 236.868 85.3697 239.918 86.2197 242.828C87.0697 245.748 90.1198 247.428 93.0298 246.578L89.9697 236.018Z" fill="#DB9F7F"/>
<path d="M122 116.898C115.6 116.898 115.6 126.898 122 126.898C128.5 126.898 128.5 116.898 122 116.898Z" fill="#DB9F7F"/>
<path d="M130.5 99.2983C124.1 99.2983 124.1 109.298 130.5 109.298C136.9 109.298 136.9 99.2983 130.5 99.2983Z" fill="#DB9F7F"/>
<path d="M140.9 116.198C134.5 116.198 134.5 126.198 140.9 126.198C147.3 126.198 147.3 116.198 140.9 116.198Z" fill="#DB9F7F"/>
</svg>
