<svg width="22" height="21" viewBox="0 0 22 21" fill="none" xmlns="http://www.w3.org/2000/svg">
<path d="M10 21C8.61667 21 7.31667 20.7375 6.1 20.2125C4.88333 19.6875 3.825 18.975 2.925 18.075C2.025 17.175 1.3125 16.1167 0.7875 14.9C0.2625 13.6833 0 12.3833 0 11C0 9.61667 0.2625 8.31667 0.7875 7.1C1.3125 5.88333 2.025 4.825 2.925 3.925C3.825 3.025 4.88333 2.3125 6.1 1.7875C7.31667 1.2625 8.61667 1 10 1C10.75 1 11.4792 1.07917 12.1875 1.2375C12.8958 1.39583 13.5667 1.625 14.2 1.925C14.1333 2.09167 14.0833 2.26667 14.05 2.45C14.0167 2.63333 14 2.81667 14 3C14 3.23333 14.025 3.45417 14.075 3.6625C14.125 3.87083 14.1917 4.06667 14.275 4.25C13.6583 3.86667 12.9917 3.5625 12.275 3.3375C11.5583 3.1125 10.8 3 10 3C7.78333 3 5.89583 3.77917 4.3375 5.3375C2.77917 6.89583 2 8.78333 2 11C2 13.2167 2.77917 15.1042 4.3375 16.6625C5.89583 18.2208 7.78333 19 10 19C12.2167 19 14.1042 18.2208 15.6625 16.6625C17.2208 15.1042 18 13.2167 18 11C18 10.3333 17.9208 9.69167 17.7625 9.075C17.6042 8.45833 17.3833 7.875 17.1 7.325C17.3667 7.54167 17.6583 7.70833 17.975 7.825C18.2917 7.94167 18.6333 8 19 8C19.0833 8 19.1708 7.99583 19.2625 7.9875C19.3542 7.97917 19.4417 7.96667 19.525 7.95C19.675 8.43333 19.7917 8.92917 19.875 9.4375C19.9583 9.94583 20 10.4667 20 11C20 12.3833 19.7375 13.6833 19.2125 14.9C18.6875 16.1167 17.975 17.175 17.075 18.075C16.175 18.975 15.1167 19.6875 13.9 20.2125C12.6833 20.7375 11.3833 21 10 21ZM13.5 10C13.9333 10 14.2917 9.85833 14.575 9.575C14.8583 9.29167 15 8.93333 15 8.5C15 8.06667 14.8583 7.70833 14.575 7.425C14.2917 7.14167 13.9333 7 13.5 7C13.0667 7 12.7083 7.14167 12.425 7.425C12.1417 7.70833 12 8.06667 12 8.5C12 8.93333 12.1417 9.29167 12.425 9.575C12.7083 9.85833 13.0667 10 13.5 10ZM6.5 10C6.93333 10 7.29167 9.85833 7.575 9.575C7.85833 9.29167 8 8.93333 8 8.5C8 8.06667 7.85833 7.70833 7.575 7.425C7.29167 7.14167 6.93333 7 6.5 7C6.06667 7 5.70833 7.14167 5.425 7.425C5.14167 7.70833 5 8.06667 5 8.5C5 8.93333 5.14167 9.29167 5.425 9.575C5.70833 9.85833 6.06667 10 6.5 10ZM10 16.5C11.1833 16.5 12.2292 16.175 13.1375 15.525C14.0458 14.875 14.7 14.0333 15.1 13H4.9C5.3 14.0333 5.95417 14.875 6.8625 15.525C7.77083 16.175 8.81667 16.5 10 16.5ZM18 4H17C16.7167 4 16.4792 3.90417 16.2875 3.7125C16.0958 3.52083 16 3.28333 16 3C16 2.71667 16.0958 2.47917 16.2875 2.2875C16.4792 2.09583 16.7167 2 17 2H18V1C18 0.716667 18.0958 0.479167 18.2875 0.2875C18.4792 0.0958333 18.7167 0 19 0C19.2833 0 19.5208 0.0958333 19.7125 0.2875C19.9042 0.479167 20 0.716667 20 1V2H21C21.2833 2 21.5208 2.09583 21.7125 2.2875C21.9042 2.47917 22 2.71667 22 3C22 3.28333 21.9042 3.52083 21.7125 3.7125C21.5208 3.90417 21.2833 4 21 4H20V5C20 5.28333 19.9042 5.52083 19.7125 5.7125C19.5208 5.90417 19.2833 6 19 6C18.7167 6 18.4792 5.90417 18.2875 5.7125C18.0958 5.52083 18 5.28333 18 5V4Z" fill="black"/>
</svg>
